# xmcd CD database file
#
# Track frame offsets:
#	150
#	19393
#	35534
#	54904
#	71382
#	84939
#	106611
#	125675
#	150695
#	170984
#	195465
#	217625
#	232775
#	257384
#
# Disc length: 3656 seconds
#
# Revision: 8
# Processed by: cddbd v1.5.2PL0 Copyright (c) Steve Scherf et al.
# Submitted via: CDex 1.70beta2
#
DISCID=a70e460e
DTITLE=Eric Burdon - Soul Of A Man
DYEAR=2006
DGENRE=Blues
TTITLE0=Soul Of A Man
TTITLE1=Kingsize Jones
TTITLE2=Red Cross Store
TTITLE3=Como Se Llama Mama
TTITLE4=Forty Days And Forty Nights
TTITLE5=Feeling Blue
TTITLE6=Never Give Up Blues
TTITLE7=GTO
TTITLE8=Forty Four
TTITLE9=Slow Moving Train
TTITLE10=Don't Ever Let Nobody Drag Your Spirit Down
TTITLE11=Devil Run
TTITLE12=I Don't Mind
TTITLE13=Circuit Rider
EXTD=Label: SPV Recordings\nBestellnummer: SPV 78412 CD\nFirma: SPV GmbH YEAR: 2006
EXTT0=
EXTT1=
EXTT2=
EXTT3=
EXTT4=
EXTT5=
EXTT6=
EXTT7=
EXTT8=
EXTT9=
EXTT10=
EXTT11=
EXTT12=
EXTT13=
PLAYORDER=
